<svg xmlns="http://www.w3.org/2000/svg" viewBox="0 0 406.855 406.855" fill="#EC9605"><path d="M395.79 298.067a41.34 41.34 0 00-4.59-4.245l-161.04-138.4 16.56-17.68c1.909.275 3.832.435 5.76.48a29.518 29.518 0 0022.32-8.64c8-8.72 9.6-22.24 3.92-38.08a110.002 110.002 0 00-28.32-41.44c-29.52-27.76-65.04-36.32-80.72-19.6a32.001 32.001 0 00-6.4 28.56l-77.12 82a31.998 31.998 0 00-28.16 8c-16 16.72-4.88 51.6 24.72 79.36 19.36 18.16 41.28 28.08 58.48 28.08a29.517 29.517 0 0022.24-8.56 32.001 32.001 0 006.4-28.56l16.56-17.44 148.8 152.48c15.551 16.732 41.721 17.688 58.453 2.137s17.688-41.72 2.137-58.452zM181.04 41.423c8-8.64 34.64-1.76 58.16 20.32a93.836 93.836 0 0124.48 35.04c3.52 9.76 3.28 17.68-.48 21.68a20.721 20.721 0 01-19.76 2.32l-63.36-59.44a20.718 20.718 0 01.96-19.92zm-29.28 195.84c-8 8.64-34.64 1.76-58.16-20.32s-32-48-24-56.72a20.721 20.721 0 0119.76-2.32l63.44 59.44a20.64 20.64 0 01-1.04 19.92zm23.44-46.72l-12.8 13.76-60.56-56.88 68.56-73.04 60.56 57.04-34.32 36.64-21.44 22.48zM382 341.503c-9.497 10.116-25.359 10.722-35.6 1.36l-148.96-152.56 21.84-23.28 161.6 138.64c10.204 9.589 10.705 25.633 1.12 35.84zm-226.22-16.255l-.18.014h-.4v-2.72c-.474-8.81-7.989-15.574-16.8-15.12H33.68c-8.75-.363-16.166 6.375-16.64 15.12v2.72h-.4c-8.452-.73-15.895 5.529-16.626 13.98l-.014.18v31.2c.587 8.463 7.924 14.847 16.387 14.26.085-.006.169-.012.253-.02H155.6c8.452.727 15.893-5.535 16.62-13.987l.02-.253v-31.2c-.631-8.459-8.001-14.805-16.46-14.174zm.46 43.615H16v-27.6h9.04a8 8 0 008-8v-9.84H139.2v9.76a8 8 0 008 8h9.04v27.68z"/></svg>