<svg xmlns="http://www.w3.org/2000/svg" viewBox="0 0 359.952 359.952" fill="#EC9605"><path d="M349.416 99.952l-165.36-98.88a8 8 0 00-8 0l-165.52 98.88a7.999 7.999 0 00-3.92 6.88v24a8 8 0 008 8h330.72a8 8 0 008-8v-24a7.999 7.999 0 00-3.92-6.88zm-326.8 22.88v-11.68l157.36-93.92 157.36 93.92v11.68H22.616zm55.04 29.76h-39.36a8 8 0 00-8 8v135.36a8 8 0 008 8h39.36a8 8 0 008-8v-135.36a8 8 0 00-8-8zm-8 135.36h-23.36v-119.36h23.36v119.36zm130-135.36h-39.36a8 8 0 00-8 8v135.36a8 8 0 008 8h39.36a8 8 0 008-8v-135.36a8 8 0 00-8-8zm-8 135.36h-23.36v-119.36h23.36v119.36zm130-135.36h-39.36a8 8 0 00-8 8v135.36a8 8 0 008 8h39.36a8 8 0 008-8v-135.36a8 8 0 00-8-8zm-8 135.36h-23.36v-119.36h23.36v119.36z"/><path d="M179.976 47.952c-18.008.044-32.596 14.632-32.64 32.64 0 18.027 14.613 32.64 32.64 32.64s32.64-14.613 32.64-32.64-14.613-32.64-32.64-32.64zm.08 49.28c-9.19 0-16.64-7.45-16.64-16.64 0-9.159 7.401-16.596 16.56-16.64 9.172.044 16.596 7.468 16.64 16.64h.08c0 9.19-7.45 16.64-16.64 16.64zm146.56 220.08H33.336a8 8 0 000 16h293.28a8 8 0 000-16zm18.72 26.64H14.616a8 8 0 000 16h330.72a8 8 0 000-16z"/></svg>