<svg xmlns="http://www.w3.org/2000/svg" viewBox="0 0 356.64 356.64" fill="#EC9605"><path d="M151.92 0H30.24c-9.455 0-17.12 7.665-17.12 17.12v322.4c0 9.455 7.665 17.12 17.12 17.12h121.68c9.455 0 17.12-7.665 17.12-17.12V17.12c0-9.455-7.665-17.12-17.12-17.12zm1.12 339.52a1.12 1.12 0 01-1.12 1.12H30.24a1.12 1.12 0 01-1.12-1.12V17.12c0-.619.501-1.12 1.12-1.12h121.68c.619 0 1.12.501 1.12 1.12v322.4z"/><path d="M91.04 40.32c-23.108 0-41.84 18.733-41.84 41.84 0 23.108 18.733 41.84 41.84 41.84 23.045 0 41.751-18.635 41.839-41.68.045-23.152-18.687-41.956-41.839-42zm25.84 42C116.792 96.528 105.249 108 91.04 108 76.769 108 65.2 96.431 65.2 82.159c0-14.271 11.569-25.84 25.841-25.839 14.271 0 25.84 11.569 25.839 25.84v.16zm8 91.84H57.2a8 8 0 000 16h67.68a8 8 0 000-16zm0 43.28H57.2a8 8 0 000 16h67.68a8 8 0 000-16zm0 43.36H57.2a8 8 0 000 16h67.68a8 8 0 000-16zM326.4 0H204.72c-9.455 0-17.12 7.665-17.12 17.12v322.4c0 9.455 7.665 17.12 17.12 17.12H326.4c9.455 0 17.12-7.665 17.12-17.12V17.12C343.52 7.665 335.855 0 326.4 0zm1.12 339.52a1.12 1.12 0 01-1.12 1.12H204.72a1.12 1.12 0 01-1.12-1.12V17.12c0-.619.501-1.12 1.12-1.12H326.4c.619 0 1.12.501 1.12 1.12v322.4z"/><path d="M265.6 40.32c-23.108 0-41.84 18.733-41.84 41.84 0 23.108 18.733 41.84 41.84 41.84 23.045 0 41.751-18.635 41.839-41.68.045-23.152-18.687-41.956-41.839-42zm25.84 42C291.352 96.528 279.809 108 265.6 108c-14.271 0-25.84-11.569-25.84-25.841 0-14.271 11.569-25.84 25.841-25.839 14.271 0 25.84 11.569 25.839 25.84v.16zm8 91.84h-67.68a8 8 0 000 16h67.68a8 8 0 000-16zm0 43.28h-67.68a8 8 0 000 16h67.68a8 8 0 000-16zm0 43.36h-67.68a8 8 0 000 16h67.68a8 8 0 000-16z"/></svg>