<svg version="1.0" xmlns="http://www.w3.org/2000/svg" viewBox="0 0 283.46 283.46" fill="#EC9605"><path d="M173.52 211.63c-.59.79-1.03 1.39-1.58 2.11 3.48 1.35 6.88 2.67 10.24 3.98.12.92-.18 1.23-1.06 1.16-1.59-.13-3.19-.17-4.87 0 1.85 1.46 3.72 2.9 5.55 4.39.49.39.85.94 1.28 1.41-.66.05-1.33.22-1.96.13-1.55-.21-3.09-.55-4.93-.89 1.24 1.67 2.3 3.1 3.54 4.76-1.93-.32-3.58-.59-5.46-.9.59 1.42 1.12 2.68 1.75 4.19-.92-.34-1.64-.59-2.35-.86-1.27-.49-1.49-.42-2.05.87-.76 1.77-1.44 3.57-2.24 5.32-.73 1.57-1.55 3.1-2.39 4.62-2.12 3.86-2.05 7.73.5 10.68.81.94 2.06 1.6 3.23 2.13 1.33.6 2.79.9 4.45 1.41-.88 1.59-1.56 3.14-2.52 4.5-1.13 1.6-2.43 1.73-3.83.37-1.48-1.44-2.77-3.08-4.12-4.65-.54-.63-1.01-1.31-1.6-2.08-3.73 3.52-1.19 6.89.16 10.49-2-.37-3.89-.64-5.71-1.11-.48-.13-1.02-.85-1.14-1.39-.44-1.98-.73-4-1.06-6-.09-.51-.13-1.03-.24-1.87-1.46 1.72-2.75 3.23-4.02 4.74-.15.17-.26.37-.39.56-1.22 1.72-1.7 2-2.73 1.59-1.71-.68-2.67-2.13-2.45-3.76.34-2.52 1.5-4.4 4.05-5.2.71-.22 1.39-.53 2.15-.82-.13-.48-.24-.87-.39-1.44-3.26 1.15-6.51 2.17-9.74-.4.82-1.21 1.65-2.54 2.58-3.79.68-.91 1.73-.91 2.79-.87 1.54.06 3.1.19 4.62 0 2.99-.37 4.43-1.89 4.63-4.92.16-2.44.09-4.9.1-7.36.02-2.64-.01-5.29.03-7.93.01-.73-.17-1.06-.97-1.17-2.69-.35-5.36-.8-8.21-1.23-.38 1.87-.75 3.65-1.18 5.78-1.04-2.22-1.92-4.11-2.87-6.14-.57.76-1.04 1.37-1.59 2.11-2.74-3.44-3.74-7.15-2.61-11.36.18-.65.39-1.31.71-1.9 2.02-3.75 2.08-7.64.97-11.65-.93-3.34-1.82-6.7-2.67-10.06-.18-.71-.52-.97-1.2-1.08-3.39-.58-6.28.25-8.89 2.57-1.11.99-2.64 1.54-4.03 2.19-1.67.78-3.47 1.3-5.08 2.19-3.78 2.09-4.48 5.27-1.96 8.79 1.07 1.49 2.42 2.79 3.64 4.18.17.19.32.39.65.78-1.03-.17-1.82-.3-2.78-.46.18.72.31 1.33.47 1.94.75 2.81 1.5 5.61 2.27 8.41.17.61.17 1.04-.68 1.1-1.15-1.66-2.32-3.35-3.49-5.05-.08.02-.17.03-.26.05v4.67c0 1.06.03 2.12-.02 3.17-.02.36-.25.71-.38 1.06-.3-.26-.71-.46-.9-.78-.89-1.52-1.71-3.08-2.67-4.84-.59 1.84-1.1 3.44-1.72 5.35-.94-1.75-1.76-3.26-2.68-4.97-.74 1.35-1.37 2.48-2.08 3.77-.16-.35-.26-.53-.33-.72-.74-2.03-.73-2-2.83-1.67-3.84.61-7.68 1.19-11.52 1.77-4.75.72-7.53 4.57-6.66 9.29.23 1.26.63 2.49.89 3.74.08.37.08.85-.1 1.16-.75 1.31-2.96 2.19-4.45 1.88-.93-.19-1.39-.82-1.66-1.67-.73-2.33-.44-4.71-.35-7.08.04-1.12.01-2.23.01-3.53-2.15 1.21-4.54 1.82-5.87 4.11-.33.57-1.36 1.36-1.61 1.22-.67-.38-1.4-1.12-1.57-1.85-.51-2.16-.06-4.29.94-6.25.26-.5.93-.87 1.49-1.13.94-.45 1.95-.78 2.95-1.17-2.55-2.73-7.53-1.85-12.93 2.29-.75-1.72-.87-3.41.14-4.96 1.95-3 4.83-5.36 8.93-4.74 1.39.21 2.8.26 4.18.39-1.32-1.33-2.74-2.47-3.77-3.89-.69-.95-.83-2.3-1.28-3.69 1.57-.23 2.98-.64 4.36-.56.85.05 1.82.71 2.43 1.38 1.02 1.1 1.75 2.46 2.68 3.64 2.17 2.75 4.57 3.31 7.39 1.27 4.25-3.07 8.3-6.42 12.41-9.67.18-.14.28-.64.18-.83-1.32-2.41-2.69-4.8-4.11-7.32l-5.08 3.56c-.06-.05-.12-.11-.18-.16 1.13-2.3 2.26-4.6 3.51-7.14-1.02.37-1.78.65-2.71.99.59-2.71 1.66-4.99 3.48-6.88 2.07-2.15 4.69-3.24 7.57-3.8.37-.07.74-.13 1.11-.2 4.47-.78 6.14-2.94 6.52-7.46.2-2.43 1.13-4.79 1.73-7.18h.4c.77 1.39 1.54 2.77 2.4 4.32 1.46-2.1 2.83-4.06 4.23-6.06 1.25.7 2.41 1.38 3.61 2.01.77.4 1.57.73 2.38 1.05 1.76.7 3.37.38 4.7-.92.64-.63 1.22-.66 2.02-.46 3.04.76 6.08 1.49 9.14 2.18.38.09.82-.13 1.55-.26.94 1.35 2.1 3.01 3.26 4.68.22.31.36.72.65.91.44.29.97.53 1.48.58.18.02.51-.56.63-.91 1.41-4.22 2.79-8.45 4.17-12.67.14.01.24-.02.27.02 2.57 3.6 6.35 5.2 10.42 6.34.33.09.65.21.99.25 4.56.52 6.74 3.68 7.88 7.58 1.74 5.93 5.04 10.74 9.64 14.76.23.2.46.39.71.56 2.47 1.77 4.49 1.42 5.92-1.25 2.79-5.18 4.39-10.62 2.68-16.53-.36-1.26-.94-2.46-1.48-3.67-1.33-2.98-2.44-6.03-2.49-9.34-.08-5.3 2.65-9.03 7.76-10.47 1.92-.54 3.92-.78 5.88-1.14 6.86-1.25 11.28-5.09 12.81-12.03.22-.99.52-1.97.79-2.95.09-.32.19-.64.37-1.23 3.32 6.61.88 12.47-1.61 18.39 6.17-2.58 11.6-8.85 10.95-21.74.37.56.59.87.78 1.2 2.87 5.03 2.93 10.31 1.19 15.66-.93 2.86-2.21 5.6-3.38 8.52 2.99-1.77 5.96-3.53 9.25-5.47-.26.9-.37 1.54-.61 2.12-.97 2.35-2.74 4.02-4.92 5.13-2.54 1.3-5.24 2.29-7.88 3.41-.27.12-.56.2-.84.49 2.68.38 5.36.75 8.36 1.17-2.49 1.23-4.82 1.81-7.26 2-2.37.19-4.66-.18-6.89-1.02-.74-.28-1.5-.52-2.27-.68-2.93-.6-5.74.81-7.05 3.57 3.9.91 7.59 2.21 9.75 5.93 1.26 2.17 1.5 4.55 1.18 7.33-2.54-2.78-4.93-5.39-7.31-7.99-1.14.54-1.55 1.34-1.49 2.56.1 1.88.03 3.77-.19 5.79-.36-.44-.72-.87-1.07-1.32-.77-.98-1.58-1.93-2.28-2.96-.51-.75-1.11-.94-2.05-.62-.31 1.94-.61 3.95-.96 5.95-.87 4.97-2.31 9.78-4.49 14.32-.86 1.79-2.18 3.46-3.6 4.88-2.82 2.84-6.35 3.61-9.99 1.97-2.33-1.05-4.43-2.68-6.54-4.18-2.98-2.11-5.87-4.35-9.03-6.7-.36 1.98-.67 3.66-.96 5.34-.61 3.57-1.23 7.14-1.77 10.72-.15 1-.15 2.04-.06 3.05.24 2.56 1.82 4.37 4.38 4.57 2.08.17 4.19-.15 6.29-.26.23-.05.53-.12 1.1-.21z"/><path d="M189.85 34c-.14 1.32-.13 2.67-.44 3.94-.85 3.48-1.8 6.93-2.75 10.38-.89 3.23-3.2 5.48-5.42 7.82-4.27 4.5-9.6 7.08-15.47 8.76-3.71 1.07-7.09 2.82-9.83 5.61-3.66 3.74-5 8.37-4.83 13.47.3 8.94-1.42 17.41-5.63 25.34-3.48 6.54-8.2 12.1-13.59 17.13-1.07 1-2.08 2.08-3.11 3.13-.15.15-.25.34-.37.51.08.08.15.16.23.24 2.26-1.9 4.66-3.66 6.75-5.74 7.81-7.75 13.84-16.63 16.94-27.32 1.52-5.26 2.15-10.64 2.08-16.11-.04-3.25 1.1-6.09 3.5-8.3 1.13-1.04 2.37-2.03 3.71-2.75 8.14-4.31 16.32-8.54 24.48-12.79.16-.08.34-.14.7-.29-.13 3.51-1.04 6.68-2.47 9.72-1.43 3.03-3.31 5.78-5.72 8.1-2.41 2.33-4.96 4.51-7.55 6.85.12.65.54.71 1.32.43 4.47-1.61 8.61-3.83 12.42-6.67.72-.54 1.48-1.02 2.44-1.67-2.02 10.64-9.6 16.39-17.76 21.68.04.08.09.17.13.25 1.44-.41 2.89-.79 4.32-1.25 1.44-.45 2.86-.96 4.28-1.48 1.44-.53 2.86-1.1 4.51-1.74-4.17 8.96-12.13 13.35-19.85 18.01.04.09.07.18.11.28 1.68-.26 3.35-.51 5.03-.78 1.53-.25 3.06-.48 4.57-.78.9-.18 1.45.07 1.66 1.1-5.87 3.66-11.78 7.34-17.68 11.02.03.07.06.15.09.22 3.58-.37 7.15-.74 11.1-1.14-.54.55-.84.9-1.17 1.2-2.23 2.04-4.95 3.13-7.77 4.04-1.87.6-3.73 1.22-5.58 1.86-.45.15-.88.39-1.29.87h1.6c2.15 0 4.31.05 6.46-.02.98-.03 1.5.26 1.53 1.35-2.06 1.36-4.16 2.74-6.47 4.27 1.46 0 2.67-.08 3.87.02 3.84.32 6.69 2.4 9 5.31 4.07 5.15 8.08 10.34 12.12 15.52.09.11.15.25.33.57-1.02.18-1.92.45-2.83.49-6.12.31-11.23-1.84-15.29-6.42-.72-.82-1.41-1.68-2-2.6-2.17-3.37-5.05-5.98-8.44-8.07-.89-.55-1.73-1.19-2.73-1.88l4.84-2.42c-.02-.07-.04-.14-.06-.22-1.45.1-2.89.18-4.34.29l-20.2 1.56c-.45.03-.91.06-1.36.05-1.43-.03-1.86-.53-1.86-1.94 0-.45-.22-.9-.36-1.42.76-2.38 1.57-4.89 2.35-7.41.87-2.8 2.32-5.2 4.6-7.12 4.23-3.57 6.23-8.33 7-13.69.86-5.94.46-11.9.29-17.86-.09-3.14.08-6.27.96-9.31 1.85-6.36 5.84-10.82 11.96-13.32 6.17-2.52 12.06-5.56 17.53-9.39 7.25-5.08 13.35-11.3 18.32-18.63.22-.32.45-.64.67-.96.13.02.27.06.42.1z"/><path d="M76.45 154.07c-1.17-.28-1.34-.71-1.2-1.51.64-3.49 1.21-6.99 1.81-10.49.06-.35.08-.72.15-1.34-2.36 1.92-4.51 3.67-6.91 5.62.56-2.35 1.05-4.41 1.6-6.71-2.41.88-4.58 1.67-7.03 2.57 1.35-3.21 2.59-6.14 3.82-9.07-.06-.06-.12-.11-.18-.17-1.59 1.33-3.17 2.66-4.76 3.99 1.76-5.28.31-10.34-.67-15.44-.53-2.76-.72-5.59-.93-8.4-.08-1.08-.86-.83-1.45-1.15-.77 1.47-1.67 2.8-1.38 4.57.16.96-.01 1.96-1.05 2.4-1.25.54-2.59.74-3.78-.1-.97-.69-1-1.78-.63-2.78.69-1.83 1.49-3.63 2.29-5.41.57-1.27 1.22-2.5 1.87-3.81-.32-.18-.57-.33-.82-.46-2.48-1.23-3.1-1-3.91 1.63-.3.98-1.08 1.17-1.83 1.21-.42.02-.98-.39-1.31-.76-2.56-2.91-.4-6.68 3.04-6.91 1.71-.11 3.43-.02 4.81-.02-.89-.94-2.37-1.94-3-3.33-.65-1.42-.46-3.23-.64-4.85 3.14-.56 4.53.02 6.1 2.5.73 1.16 1.4 2.36 2.33 3.49V88.69c2.74-.55 5.1.93 5.25 3.56.15 2.77-.13 5.56-.28 8.34-.17 3.19-1.12 6.38-.35 9.57 1.94 8.07 6.54 13.89 14.58 16.64.5.17 1.03.24 1.55.33.25.04.52.01 1.03.01-.41-.45-.68-.78-.98-1.09-1.73-1.79-3.47-3.57-5.18-5.39-.23-.25-.49-.83-.38-.98.25-.33.72-.65 1.12-.67 1.47-.07 2.94 0 4.42-.04.31-.01.62-.25.93-.38-.23-.21-.42-.49-.69-.61-1.17-.53-2.35-1.01-3.86-1.65 3.24-1.09 6.2-2.09 9.43-3.18-1.92-1.22-3.64-2.32-5.65-3.6h8.13c.04-.09.07-.18.11-.27-2.16-1.57-4.31-3.13-6.74-4.9H97.4c.05-.08.09-.16.14-.24-.89-.84-1.77-1.68-2.85-2.71 2.52-.14 4.75-.27 7.35-.42-1.76-1.38-3.24-2.55-4.99-3.92 1.56-.16 2.84-.27 4.11-.43 1.2-.15 2.4-.29 3.58-.55.52-.11 1.07-.41 1.46-.77 1.57-1.46 1.58-2.86-.22-3.99-1.74-1.1-3.69-1.85-5.58-2.7-1.12-.51-2.3-.91-3.72-1.47 2.78-.81 5.26-1.52 8-2.32-2.65-1.39-5.11-1.79-7.58-.55-1.33.67-2.46 1.73-3.73 2.52-.71.44-1.53.96-2.31.98-3.47.09-6.93-.15-10.44-1.29 2.68-1.32 5.11-2.93 8.13-1.1.55.33 1.59.18 2.27-.1 1.53-.63 2.97-1.46 4.44-2.23.74-.38 1.43-.86 2.18-1.19 2.68-1.18 4.84-.78 6.94 1.26.27.26.44.61.68.97.95-1 1.16-1.8.6-2.84-1.4-2.63-4.36-4.11-7.43-3.64-2.04.32-3.8 1.2-5.33 2.56-.27.24-.55.49-1.07.95-.28-2.43-.69-4.59-.74-6.75-.07-2.76 1.96-4.81 4.73-4.68 3.96.18 7.58-.96 11.24-2.22 2.77-.95 5.65-1.56 8.49-2.31 2.95-.78 5.91-1.53 8.87-2.3.46-.12.93-.24 1.55-.16-1.06 1.39-2.13 2.77-3.23 4.21.27.35.52.67.82 1.05l14.83-10.67c.06.04.12.09.18.13-1.76 3.97-3.53 7.94-5.42 12.21 1.59-.72 2.9-1.31 4.2-1.91l.21.18c-1.47 2.18-2.95 4.37-4.55 6.74 1.67.37 3.21.72 5.05 1.13-1.95 1.03-3.6 2.02-5.34 2.78-1.18.52-1.35 1.28-1.28 2.4.24 4 1.89 7.42 4.2 10.58.8 1.09 1.65 2.15 2.39 3.42-1.47-.54-2.94-1.09-4.64-1.72.75 2.94 1.44 5.65 2.22 8.68-1.76-1.02-3.24-1.89-4.97-2.89.62 3.53 1.2 6.83 1.84 10.45-1.85-1.25-3.48-2.34-5.37-3.62.41 3.31.79 6.34 1.19 9.65-1.41-.85-2.63-1.59-4.03-2.43.38 3.43.74 6.64 1.14 10.14-.52-.34-.86-.52-1.16-.75-3.2-2.52-4.17-6.01-3.79-9.8.45-4.54 1.31-9.03 1.97-13.54.4-2.72.32-5.42-.54-8.06-.13-.39-.25-.8-.44-1.16-.84-1.64-2.15-2.86-3.98-3.01-1.63-.13-2.61 1.27-3.16 2.56-.7 1.68-1.21 3.5-1.44 5.3-1.56 12.05-6.87 22.16-15.57 30.55-2.09 2.02-4.4 3.81-6.46 5.85-3.62 3.57-6.09 7.92-8.42 12.4-1.93 3.61-4.14 7.03-6.17 10.48z"/><path d="M97.81 129.49c.31 1.72.62 3.26.87 4.81.57 3.47 1.5 6.78 3.93 9.48 1.41 1.57 3.01 2.85 4.96 3.67.31.13.62.28.93.42 5.7 2.65 8.58 6.13 7.68 14.5-.11 1.07-.35 2.13-.6 3.55-1.17-1.92-2.16-3.55-3.13-5.14-1.78 4-3.54 7.96-5.31 11.92-.15-.03-.29-.05-.44-.08-.98-2.74-1.96-5.48-3.07-8.57-1.38 3.61-2.64 6.92-3.9 10.22l-.25.03-2.31-8.87c-1.21 2.61-2.27 4.92-3.47 7.51-1.41-3.1-2.72-5.98-4.18-9.17-1.32 3.02-2.53 5.78-3.83 8.75-1.04-2.04-1.98-3.89-3.04-5.97-.41 1.21-.73 2.16-1.06 3.12-.13.13-.27.25-.4.38-.18-.37-.29-.81-.56-1.09-1.99-2.02-4.18-2.71-6.44-1.39-3.36 1.97-6.98 3.17-10.61 4.44-.35.12-.67.32-1.32.63 1.64.51 2.99 1.08 4.39 1.32 1.63.27 2.35 1.19 2.74 2.67.17.64.05.97-.5 1.27-1.5.83-3.12.8-4.61.25-2-.74-3.91-1.74-5.85-2.65-.44-.21-.82-.52-1.22-.79-2.12 2.29-1.91 4.44.51 6.18.76.55 1.46 1.18 2.18 1.78-.07.14-.14.28-.22.42-.96.41-1.89.89-2.88 1.2-.33.1-.92-.09-1.16-.36-2.2-2.43-4.02-5.03-3.35-8.6.07-.39.01-.81.01-1.5-2.85 2.14-5.43 4.3-8.9 4.96-.11-2.06.04-3.92 1.98-5.28 1.42-.99 2.66-2.22 3.96-3.37.33-.29.59-.66 1.09-1.24-2.21 0-4.15-.01-6.09 0-.79 0-1.6.13-2.37.02-.48-.07-1.26-.4-1.32-.72-.15-.78-.26-1.86.16-2.4 1.1-1.43 2.67-2.16 4.59-1.87 2.98.45 5.97.87 8.96 1.29 5.92.85 11.26-.38 16.11-4.03 5.48-4.13 10.49-8.64 13.88-14.71 1.61-2.9 3.04-5.9 4.77-8.73 1.89-3.09 4.42-5.64 7.48-7.62.35-.14.7-.34 1.21-.64zm137.43-79.27c-.07 3.96-.96 7.47-2.57 10.74-5.24 10.66-13.53 17.96-25.11 20.62-7.21 1.66-14.19 3.8-21.09 6.35-.28.1-.57.17-.99.3.05-.37.06-.66.14-.92.49-1.54.91-3.12 1.53-4.61 1.87-4.49 5.08-7.68 9.53-9.66 5.17-2.31 10.32-4.65 15.45-7.03 8.15-3.77 15.51-8.72 22.04-14.9.28-.26.57-.48 1.07-.89z"/><path d="M118.13 88.61c1.66 1.25 2.59 2.73 2.37 4.92-.57 5.7-.95 11.42-1.53 17.12-.64 6.23-.23 12.22 3.54 17.9-2.15-.69-4.01-1.28-6.13-1.96.85 2.35 1.62 4.48 2.48 6.84-2.42-.77-4.65-1.48-7.09-2.26.53 1.55.99 2.88 1.51 4.4l-3.36-.72c.36 1.71.69 3.26 1.07 5.07-1.6-.79-3-1.47-4.39-2.16-.07.05-.15.09-.22.14.88 2.12 1.76 4.23 2.73 6.54-2.28-.47-4.02-1.52-5.46-3.06-2.2-2.35-2.82-5.16-2.34-8.29.97-6.37 3.06-12.34 6.08-18.04 3.01-5.67 5.73-11.48 7.29-17.76.35-1.39.76-2.8.81-4.21.05-2.05 1.23-3.29 2.64-4.47zm70.52-25.83c-.07-6.71.84-13.01 3.04-19.11 1.85-5.13 4.53-9.78 7.86-14.08 5.18-6.68 10.37-13.35 15.57-20.02.22-.29.47-.55.89-1.03.08.97.17 1.7.21 2.43.48 10.79-2.62 20.55-8.42 29.55-4.39 6.83-9.81 12.81-15.44 18.61-1.16 1.19-2.36 2.32-3.71 3.65zm-6.94 35.79c1.04-3.17 2.93-5.73 5.5-7.82 3.24-2.63 7.11-3.73 11.09-4.56 3.95-.83 7.92-1.54 11.85-2.44 6.04-1.39 11.53-4.21 17.09-6.85 1.11-.53 2.24-1.04 3.57-1.66-.19.52-.27.83-.4 1.12-2.48 5.57-5.68 10.65-10.31 14.72-6.39 5.62-13.94 7.92-22.3 7.24-4.82-.39-9.56-.11-14.33.3-.49.04-.98.06-1.47.08-.08 0-.14-.06-.29-.13zm46.62-70.65c-.56 3.02-1.04 6.06-1.69 9.06-1.42 6.55-3.71 12.74-7.9 18.1-3.98 5.08-8.98 8.74-15.16 10.59-4.44 1.33-8.62 3.2-12.79 5.15-.53.25-1.07.47-1.77.78.15-2.16.42-4.01 1.5-5.78 3.9-6.4 9.52-11.02 15.36-15.49 6.47-4.97 12.69-10.24 17.85-16.63 1.3-1.61 2.48-3.33 3.71-5l.63-.87c.09.03.17.06.26.09z"/><path d="M174.87 109.89c1.99-4.08 4.84-6.81 8.84-8.35 3.4-1.3 6.96-1.23 10.5-1.3 4.83-.09 9.69.27 14.44-.76 3.79-.82 7.5-1.99 11.23-3.07 2.02-.58 4-1.29 6.15-1.72-.54.75-1.06 1.52-1.63 2.25-5.97 7.6-13.5 12.65-23.23 14-3.2.44-6.45.49-9.56-.37-4.38-1.22-8.78-1.26-13.24-.86-1.07.11-2.16.12-3.5.18z"/><path d="M220.78 109.66c-1.15 1.06-2.24 2.22-3.48 3.16-2.96 2.26-5.86 4.67-9.04 6.58-6.05 3.62-12.62 4.03-19.37 2.25-5.94-1.57-11.87-3.19-17.81-4.79-.17-.05-.34-.13-.61-.23 2.07-2.99 4.81-4.92 8.36-5.02 2.98-.09 6 .36 8.98.76 9.47 1.26 18.88 1.45 28.16-1.32 1.58-.47 3.12-1.04 4.68-1.57.04.05.09.12.13.18z"/><path d="M166.28 123.6c2.28-3.26 5.39-4.13 8.86-3.55 2.55.43 5.04 1.25 7.51 2.04 6.12 1.95 12.33 3.22 18.79 2.75 2.1-.15 4.19-.39 6.47-.61-1.26 1.94-2.78 3.42-4.44 4.78-7.2 5.89-17.02 6.46-24.82 1.1-3.49-2.4-7.19-4.24-11.04-5.89-.4-.17-.8-.37-1.33-.62zm1.93 39.1c-7.79-.57-14.63-2.82-18.97-9.76-3.22-5.15-6.24-10.41-9.35-15.63-.09-.15-.14-.33-.25-.59 3.85-1.14 7.39-.46 10.42 1.92 2.11 1.66 3.98 3.69 5.72 5.76 4.65 5.53 8.67 11.5 12.23 17.78.07.13.1.27.2.52z"/><path d="M196.26 137.7c.03.57.06 1.05.09 1.66-.9.28-1.79.58-2.68.83-3.99 1.13-7.97 2.29-11.97 3.35-3.59.96-6.96.26-9.49-2.44-3.39-3.62-6.47-7.53-9.68-11.31 2.29-3.53 6.69-4.43 10.19-2 1.45 1.01 2.78 2.2 4.18 3.28 5.54 4.27 11.66 6.88 18.8 6.56.13 0 .28.04.56.07zm-49.09 30.76c-8.49-9.11-13.81-19.62-15.47-31.93 2.46.06 4.76.89 6.82 2.37 2.81 2.02 4.68 4.78 6.02 7.92 2 4.69 2.76 9.62 2.82 14.68.02 2.31-.12 4.62-.19 6.96zm-9.62-3.25c-3.67-.77-6.24-2.81-8.33-5.55-2.16-2.84-3.38-6.1-4.25-9.54-1.13-4.45-2.38-8.87-3.58-13.31-.14-.5-.29-1-.45-1.58 1.5-.4 2.83-.07 4.06.61 4.11 2.25 6.62 5.76 7.78 10.23 1.55 5.95 2.99 11.92 4.47 17.88.1.35.18.72.3 1.26zm-10.78-.45c-2.07-.33-3.78-1.13-5.04-2.56-1.18-1.34-2.39-2.81-3.04-4.43-1.91-4.75-3.52-9.63-5.3-14.43-.72-1.96-.03-3.55 1.19-5 .29-.34.9-.58 1.36-.57 1.45.04 2.69.59 3.61 1.79 1.41 1.84 2.12 3.98 2.66 6.19 1.44 5.94 2.89 11.87 4.33 17.81.08.35.13.71.23 1.2z"/></svg>