<svg xmlns="http://www.w3.org/2000/svg" viewBox="0 0 384.479 384.479" fill="#EC9605"><path d="M367.231 240.375a88.01 88.01 0 00-18.438-18.438v-39.44a8 8 0 00-8-8h-36.16v-16c13.68-5.04 23.52-22.64 23.52-44.24 0-25.68-13.84-45.76-31.52-45.76a24.477 24.477 0 00-15.44 5.76l-17.2-19.68a23.032 23.032 0 004.16-8.88 28.239 28.239 0 00-9.52-26 59.19 59.19 0 00-28.48-14.4 66.786 66.786 0 00-14.08-1.52c-19.36 0-34.4 9.12-37.28 22.64a24.4 24.4 0 001.92 15.28l-14.48 15.2-27.84-26.64a8 8 0 00-5.68-2.24 7.998 7.998 0 00-5.6 2.48l-27.28 28.4C51.673 52.368 7.338 86.116.808 134.277c-6.53 48.16 27.219 92.495 75.38 99.025 4.124.559 8.283.825 12.445.796h1.92c48.589-1.073 87.109-41.332 86.036-89.921a87.876 87.876 0 00-1.236-12.879l27.28-28.48a8 8 0 000-11.28l-24.64-23.6 12.64-13.68a60.402 60.402 0 0026 12.48 66.72 66.72 0 0014.08 1.52 50.708 50.708 0 0020.32-4.16l20 22.88a60.798 60.798 0 00-6.4 27.28c0 21.6 9.84 39.2 23.52 44.24v16h-36a8 8 0 00-8 8v39.44c-39.078 28.896-47.333 83.999-18.438 123.077 28.896 39.078 83.999 47.333 123.077 18.438 39.079-28.896 47.334-83.999 18.439-123.078zm-226.518-44.517h.08c-27.457 28.763-73.033 29.822-101.796 2.365-28.763-27.458-29.822-73.033-2.364-101.796a72 72 0 0161.921-21.609l60.96 58.48a72.004 72.004 0 01-18.801 62.56zm44.88-98.32l-19.28 20.08-52.4-50.24 19.28-20.08 52.4 50.24zm59.6-64a8.022 8.022 0 10-12.08 10.56l6.4 7.36a46.001 46.001 0 01-19.6 0 45.43 45.43 0 01-18.64-8.56l3.76-4.08a8 8 0 00-8.48-12.88 28.479 28.479 0 0119.2-5.92c3.606.017 7.2.419 10.72 1.2a43.673 43.673 0 0120.8 10.32 13.602 13.602 0 015.04 10.32l-7.12-8.32zm35.44 80.72a48.394 48.394 0 011.92-13.52l2.24 2.56a8.022 8.022 0 1012.08-10.56l-5.6-6.4a8.564 8.564 0 014.88-1.84c7.28 0 15.52 12.72 15.52 29.76a40.56 40.56 0 01-7.04 24.96v-2.72a8 8 0 00-16 0v2.72a40.564 40.564 0 01-8-24.96zm51.84 76.24v27.84h-72.32l-.32-27.84h72.64zm21.959 144.443a71.999 71.999 0 01-57.799 29.557c-39.764-.024-71.981-32.279-71.957-72.043a72 72 0 0129.557-58.117h84.48c32.122 23.44 39.159 68.481 15.719 100.603z"/></svg>