<svg width="38" height="32" fill="none" xmlns="http://www.w3.org/2000/svg"><path d="M37.494 8.815C37.5 4.232 33.877.585 29.404.67c-4.472.084-8.102 3.867-8.106 8.45-.005 4.582 3.617 8.228 8.09 8.144a7.962 7.962 0 002.623-.503c-1.834 10.743-9.992 17.802-2.43 11.976 8.384-6.46 7.922-19.669 7.913-19.911v-.011zm-21.23.195C16.27 4.429 12.647.783 8.174.867 3.702.951.072 4.734.068 9.316c-.005 4.582 3.617 8.229 8.09 8.144a7.962 7.962 0 002.623-.503C8.947 27.7.79 34.76 8.35 28.934c8.385-6.46 7.922-19.67 7.913-19.912v-.011z" fill="#232F3F"/></svg>