<svg width="50" height="50" fill="none" xmlns="http://www.w3.org/2000/svg"><path fill="#434F5F" d="M0 0h50v50H0z"/><path d="M25.856 11.762a1.224 1.224 0 00-1.713 0l-10.789 10.76a1.208 1.208 0 000 1.71 1.21 1.21 0 001.712 0L25 14.326l9.932 9.908c.474.472 1.24.472 1.714 0a1.208 1.208 0 000-1.71l-10.79-10.762zM12.29 39h-.943v-3.286H7.763V39h-.938v-7.11h.938v3.057h3.584v-3.056h.942V39zm5.678-1.855h-2.979L14.32 39h-.966l2.714-7.11h.82l2.72 7.11h-.962l-.678-1.855zm-2.695-.772h2.416l-1.21-3.325-1.206 3.325zM20.565 39v-7.11h2.325c.771 0 1.35.16 1.738.48.39.318.586.79.586 1.415 0 .332-.095.627-.283.884-.19.254-.446.45-.772.59.384.108.687.313.908.616.225.3.337.658.337 1.074 0 .638-.206 1.14-.62 1.504-.413.365-.997.547-1.753.547h-2.466zm.938-3.325v2.558h1.548c.436 0 .78-.112 1.03-.336.254-.228.38-.54.38-.938 0-.856-.465-1.284-1.396-1.284h-1.562zm0-.752h1.416c.41 0 .737-.103.981-.308.248-.205.372-.483.372-.835 0-.39-.114-.674-.342-.85-.228-.178-.575-.268-1.04-.268h-1.387v2.26zm9.311.79h-3.08v2.52h3.578V39h-4.516v-7.11h4.468v.772h-3.53v2.285h3.08v.767zm2.603.504V39h-.938v-7.11h2.623c.778 0 1.386.2 1.826.596.442.398.664.923.664 1.578 0 .69-.217 1.222-.65 1.596-.43.371-1.046.557-1.85.557h-1.675zm0-.767h1.685c.5 0 .885-.117 1.152-.351.267-.238.4-.58.4-1.026 0-.423-.133-.761-.4-1.015-.267-.254-.633-.386-1.099-.396h-1.738v2.788zm7.534-.835l1.704-2.724h1.104l-2.246 3.525 2.3 3.584h-1.114l-1.748-2.773L39.193 39h-1.108l2.305-3.584-2.251-3.525h1.098l1.714 2.724z" fill="#C0C7D9"/></svg>